<svg version="1.1" xmlns="http://www.w3.org/2000/svg" xmlns:xlink="http://www.w3.org/1999/xlink" x="0px" y="0px" width="45px" height="30px" viewBox="0 0 251.15 158.68" xml:space="preserve"><g><g><defs><path id="SVGID_1_" d="M242.646,158.68H8.504c-4.677,0-8.504-3.827-8.504-8.504V8.504C0,3.827,3.827,0,8.504,0h234.142 c4.677,0,8.504,3.827,8.504,8.504v141.672C251.15,154.853,247.323,158.68,242.646,158.68z"></path></defs><clipPath id="SVGID_2_"><use xmlns:xlink="http://www.w3.org/1999/xlink" xlink:href="#SVGID_1_" overflow="visible"></use></clipPath><polygon clip-path="url(#SVGID_2_)" fill="#FFFFFF" points="-1.208,-1.149 252.327,-1.163 252.327,160.307 -1.172,160.312 "></polygon><path clip-path="url(#SVGID_2_)" fill="#F48120" d="M251.432,88.638c0,0-69.28,48.886-196.164,70.766h196.164V88.638z"></path><path display="none" clip-path="url(#SVGID_2_)" fill="#231F20" d="M252.327-2.092L-2.105-2.067v163.306H253.25L253.235-2.092 H252.327z M251.406-0.241c0,1.811,0,157.806,0,159.627c-1.829,0-249.832,0-251.666,0c0-1.811-0.01-157.801-0.01-159.621 C1.569-0.235,249.557-0.241,251.406-0.241z"></path><path clip-path="url(#SVGID_2_)" fill="#231F20" d="M20.224,47.886H9.644v36.951h10.524c5.596,0,9.637-1.32,13.184-4.266 c4.215-3.488,6.708-8.746,6.708-14.184C40.061,55.483,31.913,47.886,20.224,47.886z M28.644,75.644 c-2.265,2.045-5.206,2.937-9.863,2.937h-1.934V54.147h1.934c4.657,0,7.483,0.833,9.863,2.988c2.493,2.219,3.992,5.659,3.992,9.198 C32.636,69.881,31.137,73.426,28.644,75.644z"></path><rect x="43.377" y="47.886" clip-path="url(#SVGID_2_)" fill="#231F20" width="7.208" height="36.951"></rect><path clip-path="url(#SVGID_2_)" fill="#231F20" d="M68.209,62.066c-4.325-1.6-5.595-2.656-5.595-4.652 c0-2.328,2.263-4.096,5.369-4.096c2.16,0,3.934,0.887,5.812,2.992l3.771-4.938c-3.099-2.711-6.807-4.097-10.858-4.097 c-6.538,0-11.525,4.54-11.525,10.588c0,5.091,2.322,7.697,9.091,10.133c2.822,0.995,4.258,1.658,4.983,2.104 c1.44,0.94,2.161,2.272,2.161,3.823c0,2.994-2.38,5.212-5.596,5.212c-3.438,0-6.207-1.719-7.866-4.928L53.3,78.691 c3.321,4.874,7.309,7.035,12.793,7.035c7.49,0,12.744-4.98,12.744-12.133C78.837,67.722,76.408,65.064,68.209,62.066z"></path><path clip-path="url(#SVGID_2_)" fill="#231F20" d="M81.111,66.387c0,10.861,8.529,19.283,19.504,19.283 c3.103,0,5.76-0.61,9.037-2.153v-8.485c-2.882,2.884-5.434,4.047-8.701,4.047c-7.259,0-12.411-5.263-12.411-12.746 c0-7.094,5.315-12.691,12.076-12.691c3.438,0,6.04,1.227,9.037,4.158v-8.481c-3.164-1.605-5.765-2.27-8.867-2.27 C89.865,47.051,81.111,55.644,81.111,66.387z"></path><polygon clip-path="url(#SVGID_2_)" fill="#231F20" points="166.799,72.706 156.945,47.886 149.071,47.886 164.753,85.785 168.631,85.785 184.594,47.886 176.781,47.886 "></polygon><polygon clip-path="url(#SVGID_2_)" fill="#231F20" points="187.853,84.837 208.294,84.837 208.294,78.582 195.055,78.582 195.055,68.608 207.806,68.608 207.806,62.349 195.055,62.349 195.055,54.147 208.294,54.147 208.294,47.886 187.853,47.886 "></polygon><path clip-path="url(#SVGID_2_)" fill="#231F20" d="M236.831,58.795c0-6.918-4.765-10.909-13.077-10.909h-10.687v36.951h7.199 V69.993h0.94l9.976,14.844h8.864L228.414,69.27C233.842,68.166,236.831,64.453,236.831,58.795z M222.372,64.898h-2.105V53.706 h2.219c4.489,0,6.929,1.881,6.929,5.477C229.415,62.898,226.975,64.898,222.372,64.898z"></path><g><circle fill="#F48120" cx="131.662" cy="66.49" r="19.657"></circle></g></g></g></svg>
